<?xml version="1.0" encoding="utf-8"?>
<!-- Generator: Adobe Illustrator 18.1.1, SVG Export Plug-In . SVG Version: 6.00 Build 0)  -->
<svg version="1.1" id="Layer_1" xmlns="http://www.w3.org/2000/svg" xmlns:xlink="http://www.w3.org/1999/xlink" x="0px" y="0px"
	 viewBox="0 0 800 600" enable-background="new 0 0 800 600" xml:space="preserve">
<rect width="800" height="600"/>
<g>
	<g>
		<path fill="#FFFFFF" d="M378.6,243.7c-25.4-46.2-2.8-76.3-7.4-89.5c-2.6-7.6-17.2-6.5-19.5-6.4c0,0-11.9,0.8-41.5,13.6
			c-3.8,3.3-9.9,5.7-13.9,4.9c-1.8,7.6-2.7,15.6-2.7,23.8c0,57,46.2,103.3,103.3,103.3c11.8,0,23.1-2,33.7-5.6
			C412.6,281.1,392.2,268.4,378.6,243.7z"/>
		<path fill="#ED2224" d="M303.7,156.8c8.8-4.9,36.3-20.7,42.7-24.4c1.5-0.9,2.8-2,4-3.3c0.8-0.9,1.6-2.1,2.4-3.5
			c2.3-4.2,5-18.1,25.8-23.3c20.8-5.2,47.3,11,44.6,45.4c-1.3,10.6-5.6,22.5,19.2,32.9c20.5,8.6,34.7,7.8,57.5,15.4
			c0.1-2,0.2-4,0.2-6c0-57-46.2-103.3-103.3-103.3c-46.7,0-86.1,31-98.9,73.5C299.3,159.2,301.2,158,303.7,156.8z"/>
	</g>
	<g>
		<g>
			<g>
				<path fill="#FFFFFF" d="M237.4,468.3h-2.8v-28.2h2.8V468.3z"/>
				<path fill="#FFFFFF" d="M280,468.3h-2.8v-25l-10.6,25h-2.4l-10.6-25v25h-2.8v-28.2l4.3,0l10.3,23.9l10.3-23.9l4.3,0V468.3z"/>
				<path fill="#FFFFFF" d="M322.6,468.3h-2.8v-25l-10.6,25h-2.4l-10.6-25v25h-2.8v-28.2l4.3,0L308,464l10.3-23.9l4.3,0V468.3z"/>
				<path fill="#FFFFFF" d="M338.8,468.3H336v-28.2h2.8V468.3z"/>
				<path fill="#FFFFFF" d="M380.8,455.3c0,3.7-1.5,6.9-4.5,9.5c-3,2.6-6.5,3.9-10.4,3.9c-4.1,0-7.6-1.4-10.6-4.3
					c-3-2.9-4.5-6.3-4.5-10.4c0-1.8,0.4-3.6,1.2-5.4c0.8-1.8,1.9-3.4,3.3-4.8c1.4-1.4,3-2.4,4.8-3.1c1.8-0.7,3.8-1.1,5.8-1.1
					c2.8,0,5.5,0.7,8.1,2.2c2.6,1.4,4.3,3.4,5.1,5.8h-3.2c-1-1.6-2.4-2.9-4.2-3.8s-3.8-1.4-5.8-1.4c-1.6,0-3.1,0.3-4.5,0.8
					c-1.4,0.5-2.7,1.3-3.9,2.4s-2.1,2.4-2.8,3.9c-0.7,1.5-1,3.1-1,4.7c0,3.4,1.2,6.2,3.6,8.5c2.4,2.3,5.3,3.4,8.7,3.4
					c2.6,0,5-0.8,7.1-2.3c2.2-1.5,3.6-3.5,4.3-5.9h-15.8v-2.5H380.8z"/>
				<path fill="#FFFFFF" d="M411.5,449.3c0,2.3-0.8,4.3-2.5,6c-1.6,1.7-3.6,2.5-5.9,2.5l8,10.5l-3.6,0l-9.6-12.7h0.8h0.8
					c1.3,0,2.4,0,3.1-0.1c0.7-0.1,1.6-0.3,2.5-0.8c1-0.4,1.8-1.2,2.5-2.2c0.7-1,1-2.2,1-3.4c0-1-0.2-1.9-0.7-2.8
					c-0.5-0.9-1.1-1.7-1.9-2.2c-0.8-0.6-1.7-0.9-2.8-1.1c-1-0.2-2.2-0.2-3.6-0.2h-4.5v25.6h-2.8v-28.2h6.7c1.9,0,3.5,0.1,4.6,0.2
					c1.1,0.1,2.3,0.6,3.6,1.3c1.3,0.7,2.3,1.8,3,3.1C411.1,446.1,411.5,447.6,411.5,449.3z"/>
				<path fill="#FFFFFF" d="M448.2,468.3l-3.1,0l-4.1-9.4H428l-4.1,9.4l-3,0l12.1-28.2h3.1l8.4,19.5L448.2,468.3z M440,456.3
					l-5.4-13l-5.5,13H440z"/>
				<path fill="#FFFFFF" d="M469.7,442.7h-6.4v25.6h-2.8v-25.6H454v-2.5h15.7V442.7z"/>
				<path fill="#FFFFFF" d="M482.8,468.3H480v-28.2h2.8V468.3z"/>
				<path fill="#FFFFFF" d="M524.6,454.1c0,4.1-1.5,7.5-4.4,10.4c-2.9,2.8-6.4,4.3-10.5,4.3c-4,0-7.5-1.4-10.4-4.2
					c-3-2.8-4.4-6.2-4.4-10.2c0-4.1,1.4-7.6,4.3-10.4c2.9-2.8,6.4-4.3,10.5-4.3c4,0,7.5,1.4,10.5,4.2
					C523.1,446.7,524.6,450.1,524.6,454.1z M521.8,454.1c0-3.3-1.2-6-3.6-8.3c-2.4-2.3-5.2-3.4-8.5-3.4c-3.3,0-6.2,1.2-8.5,3.5
					c-2.4,2.3-3.5,5.2-3.5,8.5c0,3.2,1.2,6,3.6,8.3c2.4,2.3,5.2,3.4,8.5,3.4c3.3,0,6.2-1.2,8.5-3.5
					C520.6,460.2,521.8,457.4,521.8,454.1z"/>
				<path fill="#FFFFFF" d="M558.9,468.3l-2.8,0l-16.8-24.8v24.8h-2.8v-28.2l3.8,0l15.8,23.3v-23.3h2.8V468.3z"/>
			</g>
		</g>
		<g>
			<g>
				<path fill="#FFFFFF" d="M277.4,506.2l3-16.8h11.9l-0.5,2.5h-9.2l-0.9,5.2h8.7l-0.4,2.5h-8.7l-1.2,6.6H277.4z"/>
				<path fill="#FFFFFF" d="M299.3,489.4l-2.5,14.3h8.9l-0.4,2.5h-11.5l3-16.8H299.3z"/>
				<path fill="#FFFFFF" d="M313.9,496.8l6.2-7.4h3.3l0,0.1l-8.4,9.8l-1.2,6.9H311l1.2-6.9l-4.8-9.8l0-0.1h3L313.9,496.8z"/>
				<path fill="#FFFFFF" d="M331.9,506.2l3-16.8h11.9l-0.5,2.5h-9.2l-0.9,5.2h8.7l-0.4,2.5h-8.7l-1.2,6.6H331.9z"/>
				<path fill="#FFFFFF" d="M359.7,502.6h-9.1l-2.2,3.5h-3l10.5-16.8h2.9l4.6,16.8h-2.8L359.7,502.6z M357,492.2l-5,8h7.1L357,492.2
					z"/>
				<path fill="#FFFFFF" d="M381.5,506.2h-3.1l-4.1-5.8h-3.6l-1,5.8H367l3-16.8c2.6,0,5.2,0,7.8,0c3.4,0,5.1,2.2,5.1,4.7
					c0,2.5-1.6,5.5-5.6,6l4,5.6L381.5,506.2z M372.2,491.8l-1.1,6.1h5.1c2.5,0,3.8-1.8,3.8-3.5c0-1.3-0.8-2.6-2.7-2.6H372.2z"/>
				<path fill="#FFFFFF" d="M389.7,503.2c0.6,0,1.3,0.4,1.3,1.2c0,1.2-1,1.8-1.8,1.8c-0.7,0-1.3-0.4-1.3-1.3
					C387.8,503.8,388.8,503.2,389.7,503.2z"/>
				<path fill="#FFFFFF" d="M398.6,506.2l3-16.8h11.9l-0.5,2.5h-9.2l-0.9,5.2h8.7l-0.4,2.5h-8.7l-1.2,6.6H398.6z"/>
				<path fill="#FFFFFF" d="M420.5,489.4l-2.5,14.3h8.9l-0.4,2.5h-11.5l3-16.8H420.5z"/>
				<path fill="#FFFFFF" d="M435.1,496.8l6.2-7.4h3.3l0,0.1l-8.4,9.8l-1.2,6.9h-2.7l1.2-6.9l-4.8-9.8l0-0.1h3L435.1,496.8z"/>
				<path fill="#FFFFFF" d="M464.8,506.2l1.2-7h-8.9l-1.2,7h-2.7l3-16.8h2.7l-1.3,7.3h8.9l1.3-7.3h2.7l-3,16.8H464.8z"/>
				<path fill="#FFFFFF" d="M473.1,506.2l3-16.8h2.7l-3,16.8H473.1z"/>
				<path fill="#FFFFFF" d="M496,493.2c-1-1.2-2.6-1.8-4.2-1.8c-4.5,0-7.5,3.6-7.5,7.6c0,2.6,1.3,5,5.2,5c1.4,0,2.9-0.4,4.4-1.5
					l0.6-3.5h-4.7l0.4-2.3h7.2l-1.2,6.9c-2,1.8-4.3,2.9-7.1,2.9c-5.3,0-7.5-3.3-7.5-7.1c0-5.4,3.8-10.5,10.6-10.5
					c2.2,0,4.3,0.8,5.8,2.5L496,493.2z"/>
				<path fill="#FFFFFF" d="M512.3,506.2l1.2-7h-8.9l-1.2,7h-2.7l3-16.8h2.7l-1.3,7.3h8.9l1.3-7.3h2.7l-3,16.8H512.3z"/>
			</g>
		</g>
		<g>
			<g>
				<g>
					<path fill="#FFFFFF" d="M217.6,375.3c0,5.7-2,10.5-6,14.6c-4,4.1-8.8,6.1-14.4,6.1l19.5,25.8l-8.7,0l-23.4-31.3h2.1h1.9
						c3.3,0,5.8-0.1,7.6-0.3c1.7-0.2,3.8-0.8,6.2-1.9c2.4-1.1,4.4-2.9,6-5.4c1.6-2.5,2.4-5.3,2.4-8.4c0-2.4-0.6-4.7-1.8-6.9
						c-1.2-2.2-2.8-4.1-4.8-5.5c-2-1.4-4.3-2.3-6.8-2.7c-2.5-0.4-5.5-0.6-8.8-0.6h-10.9v62.9h-6.9v-69.1h16.4
						c4.7,0,8.5,0.2,11.3,0.5c2.8,0.3,5.8,1.4,8.9,3.2c3.1,1.8,5.6,4.3,7.5,7.7C216.7,367.5,217.6,371.2,217.6,375.3z"/>
					<path fill="#FFFFFF" d="M273.3,421.8h-37.7v-69.1h37.7v6.3h-30.8v24.9h29.8v6.3h-29.8v25.4h30.8V421.8z"/>
					<path fill="#FFFFFF" d="M349.9,387.2c0,4.9-1,9.5-2.9,14s-4.8,8.4-8.5,11.8c-3.7,3.4-7.8,5.7-12.2,7c-4.4,1.2-9.6,1.9-15.6,1.9
						h-19.1v-69.1h18.6c5.5,0,10.5,0.6,14.9,1.7c4.4,1.2,8.5,3.3,12.4,6.4c3.9,3.1,7,7.1,9.2,11.7S349.9,382.2,349.9,387.2z
						 M343,387.2c0-9-2.5-15.4-7.4-19.2c-4.9-3.9-9.1-6.3-12.5-7.4c-3.4-1.1-8.7-1.6-15.8-1.6h-8.9v56.6h8.9
						c5.9,0,10.6-0.4,14.2-1.1c3.6-0.7,8.1-3.2,13.4-7.3C340.4,403,343,396.4,343,387.2z"/>
					<path fill="#FFFFFF" d="M416.2,421.8l-8.8,0.1l-23-29.9l-8.9,11v18.9h-6.9v-69.1h6.9v39.7l31.8-39.7l8.9,0l-27.4,33.7
						L416.2,421.8z"/>
					<path fill="#FFFFFF" d="M486,421.8l-6.9,0L437.9,361v60.8h-6.9v-69.1l9.3,0L479,410v-57.3h6.9V421.8z"/>
					<path fill="#FFFFFF" d="M624.5,359h-15.7v62.9h-6.9V359H586v-6.3h38.5V359z"/>
				</g>
			</g>
			<g>
				<path fill="#FFFFFF" d="M568.1,393.4c-1.8-2.1-4.3-3.2-7.4-3.3c-2.6-0.1-5.2-0.1-7.8-0.1l-1.8,0c-0.4,0-0.6-0.1-0.9-0.5
					c-2.5-3.2-5.1-6.5-7.7-9.7l-0.8-1c-0.2-0.3-0.5-0.7-1-0.9c-1.8-0.8-3.6-1.5-5.5-2.3l-3.4-1.4l5.7,15.7l-0.8,0c-1.4,0-2.7,0-4,0
					l-1.2,0c-0.3,0-0.6-0.2-0.8-0.3c-0.9-0.9-1.7-1.7-2.6-2.6c-0.7-0.7-1.3-1.3-2-2c-0.3-0.3-0.9-0.7-1.5-0.7c-0.7,0-1.4,0-2.1,0
					l-3.8,0l0.3,1.3c0,0.2,0.1,0.4,0.1,0.6l1.3,5.3c0,0.1,0,0.2,0,0.2c-0.9,0.6-1.2,1.3-1.3,1.8c-0.1,0.5,0,1.3,0.7,2.1
					c0.5,0.6,1.1,1.1,1.8,1.5c3.6,2,7.5,3,11.4,3h0.3c7.6,0,15.2,0,22.7-0.1c3.1,0,6.4,0,9.6-0.2c2-0.1,3.3-0.9,3.8-2.4
					C570.2,395.7,568.9,394.2,568.1,393.4z M523.1,388c0.5,0,1.1,0.3,1.7,1c1,1.2,2.2,2.3,3.3,3.4l0.7,0.7c0.2,0.2,0.7,0.7,1.4,0.7
					c3.2,0,6.4-0.1,9.6-0.1l1.4,0l0.4-0.1l0.9-0.7l-4.9-12.3c0.7,0.3,1.4,0.5,1.8,1.1c1.6,2,3.2,4,4.8,6c1.3,1.6,2.6,3.2,3.9,4.9
					c0.5,0.7,1.2,1,2.1,1h0c3.2,0,6.5-0.1,9.7,0c2.4,0,4.1,0.6,5.3,1.9c0.2,0.2,0.4,0.5,0.6,0.9c-0.3,0.1-0.6,0.3-0.9,0.3
					c-3.4,0.1-6.7,0.1-10.1,0.1l-6.4,0c-5.1,0-10.3,0.1-15.4,0c-3.4,0-6.4-0.8-9.1-2.3l0.9-0.1L523.1,388z"/>
				<path fill="#FFFFFF" d="M516.1,393.3c0-0.2,0.1-0.3,0.1-0.5c-13.6-2-20.7-5.1-20.7-7.1c0-1.4,3.5-3.4,10.2-5.1
					c0.2-1.3,0.5-2.5,0.9-3.8c-8.5,2-14.5,4.9-14.5,8.8c0,5.4,11.1,8.8,24.5,10.7C516.2,395.4,516,394.3,516.1,393.3z M582.7,376.6
					c0.3,1.2,0.6,2.5,0.8,3.7c7.3,1.8,11.1,3.9,11.1,5.3c0,2.1-7.8,5.5-23,7.5c0.5,0.9,1,2,1,3.3c13.9-1.8,25.5-5.2,25.5-10.8
					C598.2,381.5,591.7,378.6,582.7,376.6z"/>
				<path fill="#ED2224" d="M570.3,361.9c-7.3-6.9-15.8-10.3-25.7-10.3c-10.1,0-18.7,3.5-25.8,10.4c-7.1,7-10.6,15.5-10.6,25.6
					c0,0.2,0,0.4,0,0.6c1.1,0.3,2.3,0.5,3.6,0.8c0-0.5-0.1-0.9-0.1-1.3c0-9.1,3.2-16.8,9.7-23.1c6.4-6.4,14.2-9.5,23.3-9.5
					c9,0,16.7,3.1,23.2,9.3c6.5,6.2,9.7,13.8,9.7,22.7c0,0.7-0.1,1.4-0.1,2.2c1.3-0.2,2.5-0.5,3.6-0.7c0-0.5,0.1-0.9,0.1-1.4
					C581.1,377.2,577.5,368.8,570.3,361.9z M567.9,410.1c-6.4,6.3-14.2,9.5-23.3,9.5c-8.9,0-16.6-3.1-23.1-9.4
					c-3.5-3.4-6.1-7.1-7.7-11.3c-1.4-0.2-2.8-0.5-4.1-0.7c1.7,5.4,4.8,10.2,9.3,14.4c7.3,6.9,15.8,10.3,25.5,10.3
					c10.1,0,18.7-3.5,25.9-10.4c4.3-4.1,7.2-8.8,9-14.1c-1.3,0.2-2.6,0.4-4,0.7C573.7,403.1,571.3,406.8,567.9,410.1z"/>
			</g>
		</g>
	</g>
</g>
</svg>
