<?xml version="1.0" encoding="utf-8"?>
<!-- Generator: Adobe Illustrator 18.1.1, SVG Export Plug-In . SVG Version: 6.00 Build 0)  -->
<svg version="1.1" id="Layer_1" xmlns="http://www.w3.org/2000/svg" xmlns:xlink="http://www.w3.org/1999/xlink" x="0px" y="0px"
	 viewBox="0 0 800 200" enable-background="new 0 0 800 200" xml:space="preserve">
<rect width="800" height="200"/>
<g>
	<g>
		<path fill="#FFFFFF" d="M106.7,126.8c-12.7-23.1-1.4-38.2-3.7-44.7c-1.3-3.8-8.6-3.3-9.7-3.2c0,0-6,0.4-20.8,6.8
			c-1.9,1.6-5,2.9-7,2.5c-0.9,3.8-1.4,7.8-1.4,11.9c0,28.5,23.1,51.6,51.6,51.6c5.9,0,11.6-1,16.8-2.8
			C123.7,145.5,113.5,139.1,106.7,126.8z"/>
		<path fill="#ED2224" d="M69.3,83.4c4.4-2.4,18.2-10.3,21.4-12.2c0.8-0.4,1.4-1,2-1.7c0.4-0.5,0.8-1,1.2-1.8
			c1.1-2.1,2.5-9.1,12.9-11.7c10.4-2.6,23.7,5.5,22.3,22.7c-0.7,5.3-2.8,11.2,9.6,16.4c10.2,4.3,17.4,3.9,28.7,7.7
			c0.1-1,0.1-2,0.1-3c0-28.5-23.1-51.6-51.6-51.6c-23.3,0-43.1,15.5-49.5,36.7C67.1,84.6,68,84,69.3,83.4z"/>
	</g>
	<g>
		<g>
			<g>
				<path fill="#FFFFFF" d="M376.2,120.8l-1.1,4.9h6.5l-0.4,1.6h-6.5l-1.5,6.6h-1.9l3.4-14.7h9l-0.4,1.7H376.2z"/>
				<path fill="#FFFFFF" d="M393.8,132.4c-0.1,0.3-0.3,0.5-0.5,0.7s-0.5,0.4-0.8,0.5c-0.3,0.1-0.7,0.2-1.2,0.2h-7.8l3.4-14.7h1.9
					l-3,13.1h5.3c0.3,0,0.6,0,0.8-0.1c0.2-0.1,0.4-0.2,0.5-0.3c0.1-0.1,0.2-0.3,0.3-0.4c0.1-0.2,0.1-0.3,0.2-0.5l1.2,0.6
					C394,131.8,393.9,132.1,393.8,132.4z"/>
				<path fill="#FFFFFF" d="M404.2,125.8c-0.8,0.7-1.8,1.2-3,1.3l-1.6,6.7h-1.9l1.6-6.7c-1.1-0.1-1.9-0.6-2.3-1.3
					c-0.4-0.7-0.5-1.7-0.2-3l0.8-3.7h1.9l-0.8,3.3c-0.1,0.5-0.2,0.9-0.2,1.3c0,0.4,0,0.7,0.2,1c0.1,0.3,0.3,0.5,0.6,0.7
					s0.7,0.3,1.2,0.3c0.5,0,0.9-0.1,1.3-0.3c0.4-0.2,0.7-0.4,0.9-0.7c0.3-0.3,0.5-0.6,0.6-1.1c0.2-0.4,0.3-0.8,0.4-1.3l0.8-3.3h1.9
					l-0.8,3.7C405.5,124.1,404.9,125.1,404.2,125.8z"/>
				<path fill="#FFFFFF" d="M419.3,120.8l-1.1,4.9h6.5l-0.4,1.6h-6.5l-1.5,6.6h-1.9l3.4-14.7h9l-0.4,1.7H419.3z"/>
				<path fill="#FFFFFF" d="M433.6,133.8l1.5-6.6H430l-1.5,6.6h-1.9l2.5-10.6c0.3-1.5,1-2.6,1.9-3.3s2.1-1.1,3.6-1.1
					c1.5,0,2.5,0.4,3.1,1.1c0.6,0.8,0.7,1.9,0.4,3.3l-2.5,10.6H433.6z M435.9,123.6c0.1-0.5,0.2-0.9,0.2-1.3c0-0.4,0-0.8-0.2-1.1
					c-0.1-0.3-0.3-0.5-0.6-0.7c-0.3-0.2-0.7-0.3-1.2-0.3s-0.9,0.1-1.3,0.3c-0.4,0.2-0.7,0.4-0.9,0.7c-0.3,0.3-0.5,0.7-0.6,1.1
					c-0.2,0.4-0.3,0.8-0.4,1.3l-0.5,2.1h5.1L435.9,123.6z"/>
				<path fill="#FFFFFF" d="M451.4,123.1c-0.2,0.9-0.6,1.7-1.3,2.3s-1.4,1.1-2.4,1.3c0.5,0.1,0.9,0.3,1.2,0.5
					c0.3,0.2,0.5,0.5,0.6,0.9c0.1,0.3,0.2,0.7,0.1,1.2c0,0.4-0.1,0.9-0.2,1.4l-0.7,3.1h-1.9l0.7-2.9c0.1-0.6,0.2-1.1,0.2-1.5
					s-0.1-0.8-0.3-1.1c-0.2-0.3-0.5-0.5-0.8-0.6c-0.4-0.1-0.9-0.2-1.5-0.2H443l-1.5,6.3h-1.9l3.4-14.7h4.8c0.7,0,1.2,0.1,1.8,0.2
					c0.5,0.2,1,0.4,1.3,0.7c0.3,0.3,0.6,0.7,0.7,1.2S451.6,122.4,451.4,123.1z M449.5,123.3c0.2-0.8,0.1-1.5-0.3-1.9
					c-0.4-0.5-1.2-0.7-2.4-0.7h-2.2l-1.3,5.4h2.2c0.4,0,0.8,0,1.3-0.1c0.4-0.1,0.8-0.3,1.2-0.5c0.4-0.2,0.7-0.5,1-0.9
					C449.1,124.3,449.3,123.8,449.5,123.3z"/>
				<path fill="#FFFFFF" d="M456.7,133c-0.1,0.3-0.3,0.6-0.6,0.8c-0.3,0.2-0.6,0.3-0.9,0.3c-0.3,0-0.6-0.1-0.8-0.3s-0.3-0.5-0.2-0.8
					c0.1-0.3,0.3-0.6,0.6-0.8c0.3-0.2,0.6-0.3,0.9-0.3c0.3,0,0.6,0.1,0.8,0.3C456.7,132.4,456.7,132.7,456.7,133z"/>
				<path fill="#FFFFFF" d="M467.3,120.8l-1.1,4.9h6.5l-0.4,1.6h-6.5l-1.5,6.6h-1.9l3.4-14.7h9l-0.4,1.7H467.3z"/>
				<path fill="#FFFFFF" d="M484.9,132.4c-0.1,0.3-0.3,0.5-0.5,0.7s-0.5,0.4-0.8,0.5c-0.3,0.1-0.7,0.2-1.2,0.2h-7.8l3.4-14.7h1.9
					l-3,13.1h5.3c0.3,0,0.6,0,0.8-0.1c0.2-0.1,0.4-0.2,0.5-0.3c0.1-0.1,0.2-0.3,0.3-0.4s0.1-0.3,0.2-0.5l1.2,0.6
					C485.1,131.8,485,132.1,484.9,132.4z"/>
				<path fill="#FFFFFF" d="M495.2,125.8c-0.8,0.7-1.8,1.2-3,1.3l-1.6,6.7h-1.9l1.6-6.7c-1.1-0.1-1.9-0.6-2.3-1.3
					c-0.4-0.7-0.5-1.7-0.2-3l0.8-3.7h1.9l-0.8,3.3c-0.1,0.5-0.2,0.9-0.2,1.3c0,0.4,0,0.7,0.2,1s0.3,0.5,0.6,0.7s0.7,0.3,1.2,0.3
					s0.9-0.1,1.3-0.3c0.4-0.2,0.7-0.4,0.9-0.7c0.3-0.3,0.5-0.6,0.6-1.1c0.2-0.4,0.3-0.8,0.4-1.3l0.8-3.3h1.9l-0.8,3.7
					C496.5,124.1,496,125.1,495.2,125.8z"/>
				<path fill="#FFFFFF" d="M513.4,133.8l1.6-6.7h-6l-1.6,6.7h-1.9l3.4-14.7h1.9l-1.5,6.4h6l1.5-6.4h1.9l-3.4,14.7H513.4z"/>
				<path fill="#FFFFFF" d="M519.5,133.8l3.4-14.7h1.9l-3.4,14.7H519.5z"/>
				<path fill="#FFFFFF" d="M538.8,133.9c-0.4,0-0.7-0.1-0.9-0.2s-0.4-0.3-0.5-0.5c-0.1-0.2-0.1-0.5-0.1-0.9c0-0.3,0-0.7,0.1-1.2
					c-0.7,0.9-1.5,1.6-2.5,2.2c-1,0.6-2,0.8-3.2,0.8c-1.1,0-2-0.2-2.8-0.6s-1.4-1-1.8-1.7s-0.7-1.5-0.8-2.4c-0.1-0.9,0-1.9,0.2-2.9
					c0.2-1.1,0.6-2.1,1.2-3s1.2-1.8,1.9-2.5c0.8-0.7,1.6-1.3,2.6-1.7s2-0.6,3.2-0.6c0.8,0,1.5,0.1,2.1,0.3s1.2,0.6,1.7,1
					s0.8,1,1,1.6c0.2,0.6,0.3,1.4,0.2,2.2h-1.9c0.1-0.5,0-1-0.2-1.5c-0.2-0.4-0.4-0.8-0.8-1.1c-0.3-0.3-0.7-0.5-1.2-0.7
					s-0.9-0.2-1.5-0.2c-0.9,0-1.6,0.2-2.4,0.5c-0.7,0.4-1.3,0.8-1.9,1.4c-0.6,0.6-1,1.2-1.4,2s-0.7,1.5-0.8,2.3
					c-0.2,0.7-0.2,1.5-0.2,2.2s0.2,1.4,0.5,1.9s0.7,1,1.2,1.4c0.5,0.3,1.2,0.5,2,0.5c0.6,0,1.2-0.1,1.8-0.3s1-0.5,1.5-0.8
					c0.4-0.4,0.8-0.8,1.2-1.3c0.3-0.5,0.6-1,0.9-1.6h-4.2l0.4-1.6h6.3l-0.9,3.9c-0.1,0.3-0.1,0.6-0.1,0.8c0,0.2,0.1,0.4,0.2,0.5
					c0.1,0.1,0.2,0.2,0.4,0.2c0.2,0,0.3,0.1,0.5,0.1L538.8,133.9z"/>
				<path fill="#FFFFFF" d="M550.1,133.8l1.6-6.7h-6l-1.6,6.7h-1.9l3.4-14.7h1.9l-1.5,6.4h6l1.5-6.4h1.9l-3.4,14.7H550.1z"/>
			</g>
		</g>
		<g>
			<g>
				<path fill="#FFFFFF" d="M218.7,80c0,2.8-1,5.3-3,7.3c-2,2-4.4,3.1-7.2,3.1l9.8,12.9l-4.4,0l-11.7-15.6h1h0.9
					c1.6,0,2.9,0,3.8-0.1c0.9-0.1,1.9-0.4,3.1-1c1.2-0.5,2.2-1.4,3-2.7c0.8-1.2,1.2-2.6,1.2-4.2c0-1.2-0.3-2.3-0.9-3.5
					c-0.6-1.1-1.4-2-2.4-2.7c-1-0.7-2.1-1.1-3.4-1.3c-1.3-0.2-2.7-0.3-4.4-0.3h-5.5v31.4h-3.5V68.7h8.2c2.4,0,4.3,0.1,5.7,0.3
					c1.4,0.2,2.9,0.7,4.4,1.6c1.6,0.9,2.8,2.2,3.7,3.9C218.2,76.1,218.7,77.9,218.7,80z"/>
				<path fill="#FFFFFF" d="M242.6,103.2h-18.9V68.7h18.9v3.1h-15.4v12.5h14.9v3.1h-14.9v12.7h15.4V103.2z"/>
				<path fill="#FFFFFF" d="M277.1,85.9c0,2.4-0.5,4.8-1.5,7c-1,2.2-2.4,4.2-4.3,5.9c-1.9,1.7-3.9,2.9-6.1,3.5
					c-2.2,0.6-4.8,0.9-7.8,0.9h-9.5V68.7h9.3c2.8,0,5.2,0.3,7.4,0.9c2.2,0.6,4.2,1.7,6.2,3.2c1.9,1.6,3.5,3.5,4.6,5.9
					S277.1,83.4,277.1,85.9z M273.6,85.9c0-4.5-1.2-7.7-3.7-9.6c-2.5-1.9-4.5-3.2-6.2-3.7c-1.7-0.5-4.3-0.8-7.9-0.8h-4.4v28.3h4.4
					c2.9,0,5.3-0.2,7.1-0.5c1.8-0.4,4.1-1.6,6.7-3.7C272.3,93.8,273.6,90.5,273.6,85.9z"/>
				<path fill="#FFFFFF" d="M306.3,103.2l-4.4,0l-11.5-15l-4.5,5.5v9.4h-3.5V68.7h3.5v19.9l15.9-19.9l4.4,0l-13.7,16.8L306.3,103.2z
					"/>
				<path fill="#FFFFFF" d="M337.3,103.2h-3.5l-20.6-30.4v30.4h-3.5V68.7l4.7,0l19.4,28.6V68.7h3.5V103.2z"/>
				<path fill="#FFFFFF" d="M407.4,71.8h-7.8v31.4h-3.5V71.8h-7.9v-3.1h19.2V71.8z"/>
				<path fill="#FFFFFF" d="M430,103.2h-3.5V68.7h3.5V103.2z"/>
				<path fill="#FFFFFF" d="M473,103.2h-3.5V72.5l-13,30.7h-2.9l-13-30.7v30.7h-3.5V68.7l5.3,0L455.1,98l12.6-29.4l5.3,0V103.2z"/>
				<path fill="#FFFFFF" d="M516.1,103.2h-3.5V72.5l-13,30.7h-2.9l-13-30.7v30.7h-3.5V68.7l5.3,0L498.2,98l12.6-29.4l5.3,0V103.2z"
					/>
				<path fill="#FFFFFF" d="M526.7,103.2h-3.5V68.7h3.5V103.2z"/>
				<path fill="#FFFFFF" d="M569,87.3c0,4.6-1.9,8.5-5.6,11.7c-3.7,3.2-8,4.8-12.8,4.8c-5,0-9.3-1.7-13-5.2
					c-3.7-3.5-5.5-7.8-5.5-12.8c0-2.2,0.5-4.5,1.4-6.7c1-2.2,2.3-4.2,4-5.8s3.7-3,5.9-3.8c2.2-0.9,4.6-1.3,7.1-1.3
					c3.5,0,6.8,0.9,9.9,2.7c3.2,1.8,5.3,4.1,6.3,7.1H563c-1.2-2-2.9-3.6-5.1-4.7c-2.2-1.2-4.6-1.7-7.1-1.7c-1.9,0-3.8,0.3-5.5,1
					c-1.7,0.6-3.3,1.6-4.8,2.9c-1.4,1.3-2.6,2.9-3.5,4.8c-0.9,1.9-1.3,3.8-1.3,5.7c0,4.1,1.5,7.6,4.5,10.4c3,2.8,6.5,4.2,10.7,4.2
					c3.2,0,6.1-0.9,8.7-2.8s4.4-4.3,5.3-7.3h-19.3v-3.1H569z"/>
				<path fill="#FFFFFF" d="M597.5,80c0,2.8-1,5.3-3,7.3c-2,2-4.4,3.1-7.2,3.1l9.8,12.9l-4.4,0L581,87.6h1h0.9c1.6,0,2.9,0,3.8-0.1
					c0.9-0.1,1.9-0.4,3.1-1c1.2-0.5,2.2-1.4,3-2.7c0.8-1.2,1.2-2.6,1.2-4.2c0-1.2-0.3-2.3-0.9-3.5c-0.6-1.1-1.4-2-2.4-2.7
					c-1-0.7-2.1-1.1-3.4-1.3c-1.3-0.2-2.7-0.3-4.4-0.3h-5.5v31.4H574V68.7h8.2c2.4,0,4.3,0.1,5.7,0.3c1.4,0.2,2.9,0.7,4.4,1.6
					c1.6,0.9,2.8,2.2,3.7,3.9C597,76.1,597.5,77.9,597.5,80z"/>
				<path fill="#FFFFFF" d="M633.4,103.2l-3.8,0l-5-11.6h-16.1l-5,11.6l-3.7,0l14.9-34.6h3.8l10.3,23.9L633.4,103.2z M623.3,88.5
					l-6.7-15.9l-6.7,15.9H623.3z"/>
				<path fill="#FFFFFF" d="M650.4,71.8h-7.8v31.4h-3.5V71.8h-7.9v-3.1h19.2V71.8z"/>
				<path fill="#FFFFFF" d="M657.3,103.2h-3.5V68.7h3.5V103.2z"/>
				<path fill="#FFFFFF" d="M699.3,85.8c0,5-1.8,9.3-5.4,12.7s-7.9,5.2-12.9,5.2c-4.9,0-9.1-1.7-12.8-5.2c-3.6-3.4-5.4-7.6-5.4-12.5
					c0-5,1.8-9.3,5.3-12.8c3.5-3.5,7.8-5.2,12.9-5.2c5,0,9.2,1.7,12.9,5.2C697.5,76.7,699.3,80.9,699.3,85.8z M695.9,85.8
					c0-4-1.5-7.4-4.4-10.2c-2.9-2.8-6.4-4.2-10.4-4.2c-4.1,0-7.6,1.4-10.5,4.3c-2.9,2.9-4.3,6.3-4.3,10.4c0,3.9,1.5,7.3,4.4,10.1
					s6.4,4.2,10.4,4.2c4.1,0,7.6-1.4,10.5-4.3C694.4,93.4,695.9,89.9,695.9,85.8z"/>
				<path fill="#FFFFFF" d="M732.3,103.2h-3.5l-20.6-30.4v30.4h-3.5V68.7l4.7,0l19.4,28.6V68.7h3.5V103.2z"/>
			</g>
		</g>
		<g>
			<path fill="#FFFFFF" d="M378.2,89c-0.9-1-2.2-1.6-3.7-1.7c-1.3-0.1-2.6-0.1-3.9,0l-0.9,0c-0.2,0-0.3-0.1-0.5-0.2
				c-1.3-1.6-2.6-3.2-3.8-4.8l-0.4-0.5c-0.1-0.2-0.3-0.3-0.5-0.4c-0.9-0.4-1.8-0.7-2.7-1.1l-1.7-0.7l2.8,7.8l-0.4,0
				c-0.7,0-1.4,0-2,0l-0.6,0c-0.1,0-0.3-0.1-0.4-0.2c-0.4-0.4-0.9-0.9-1.3-1.3c-0.3-0.3-0.7-0.7-1-1c-0.2-0.2-0.4-0.3-0.7-0.3
				c-0.4,0-0.7,0-1.1,0l-1.9,0l0.1,0.6c0,0.1,0,0.2,0.1,0.3l0.7,2.7c0,0,0,0.1,0,0.1c-0.5,0.3-0.6,0.7-0.6,0.9c0,0.2,0,0.6,0.4,1.1
				c0.3,0.3,0.6,0.6,0.9,0.7c1.8,1,3.7,1.5,5.7,1.5h0.1c3.8,0,7.6,0,11.4,0c1.6,0,3.2,0,4.8-0.1c1,0,1.6-0.4,1.9-1.2
				C379.2,90.2,378.6,89.4,378.2,89z M355.7,86.3c0.3,0,0.6,0.1,0.9,0.5c0.5,0.6,1.1,1.2,1.6,1.7l0.3,0.3c0.1,0.1,0.4,0.3,0.7,0.3
				c1.6,0,3.2,0,4.8,0l0.7,0l0.2,0l0.4-0.3l-2.4-6.1c0.4,0.1,0.7,0.3,0.9,0.6c0.8,1,1.6,2,2.4,3c0.6,0.8,1.3,1.6,1.9,2.4
				c0.3,0.3,0.6,0.5,1,0.5h0c1.6,0,3.2,0,4.8,0c1.2,0,2,0.3,2.6,0.9c0.1,0.1,0.2,0.3,0.3,0.4c-0.2,0.1-0.3,0.1-0.5,0.1
				c-1.7,0-3.4,0-5.1,0.1l-3.2,0c-2.6,0-5.1,0-7.7,0c-1.7,0-3.2-0.4-4.5-1.1l0.4-0.1L355.7,86.3z"/>
			<path fill="#FFFFFF" d="M352.2,89c0-0.1,0-0.2,0.1-0.2c-6.8-1-10.3-2.6-10.3-3.6c0-0.7,1.7-1.7,5.1-2.5c0.1-0.6,0.3-1.3,0.4-1.9
				c-4.3,1-7.3,2.4-7.3,4.4c0,2.7,5.5,4.4,12.3,5.3C352.2,90,352.1,89.5,352.2,89z M385.5,80.6c0.2,0.6,0.3,1.2,0.4,1.9
				c3.7,0.9,5.6,1.9,5.6,2.7c0,1.1-3.9,2.8-11.5,3.7c0.3,0.4,0.5,1,0.5,1.7c6.9-0.9,12.8-2.6,12.8-5.4
				C393.2,83.1,390,81.6,385.5,80.6z"/>
			<path fill="#ED2224" d="M379.3,73.3c-3.6-3.4-7.9-5.2-12.9-5.2c-5,0-9.3,1.7-12.9,5.2c-3.5,3.5-5.3,7.7-5.3,12.8
				c0,0.1,0,0.2,0,0.3c0.5,0.1,1.2,0.3,1.8,0.4c0-0.2,0-0.4,0-0.7c0-4.5,1.6-8.4,4.8-11.6c3.2-3.2,7.1-4.8,11.6-4.8
				c4.5,0,8.4,1.6,11.6,4.7c3.2,3.1,4.9,6.9,4.9,11.4c0,0.4,0,0.7,0,1.1c0.6-0.1,1.3-0.2,1.8-0.4c0-0.2,0-0.5,0-0.7
				C384.7,80.9,382.9,76.7,379.3,73.3z M378.1,97.4c-3.2,3.2-7.1,4.7-11.7,4.7c-4.4,0-8.3-1.6-11.6-4.7c-1.8-1.7-3-3.6-3.9-5.6
				c-0.7-0.1-1.4-0.2-2.1-0.4c0.9,2.7,2.4,5.1,4.6,7.2c3.6,3.4,7.9,5.2,12.8,5.2c5,0,9.4-1.7,12.9-5.2c2.1-2.1,3.6-4.4,4.5-7
				c-0.6,0.1-1.3,0.2-2,0.3C381,93.9,379.8,95.7,378.1,97.4z"/>
		</g>
	</g>
</g>
</svg>
